<?xml version="1.0" encoding="utf-8"?>
<!-- Generated by IcoMoon.io -->
<!DOCTYPE svg PUBLIC "-//W3C//DTD SVG 1.1//EN" "http://www.w3.org/Graphics/SVG/1.1/DTD/svg11.dtd">
<svg version="1.1" xmlns="http://www.w3.org/2000/svg" xmlns:xlink="http://www.w3.org/1999/xlink" width="59" height="55" viewBox="0 0 59 55">
<g>
	<line stroke-width="1" x1="" y1="" x2="" y2="" stroke="#449FDB" opacity=""></line>
</g>
	<path d="M0 38.304v-33.393q0-2.026 1.443-3.468t3.468-1.443h49.107q2.026 0 3.468 1.443t1.443 3.468v33.393q0 2.026-1.443 3.468t-3.468 1.443h-16.696q0 1.136 0.491 2.379t0.982 2.179 0.491 1.335q0 0.798-0.583 1.381t-1.381 0.583h-15.714q-0.798 0-1.381-0.583t-0.583-1.381q0-0.43 0.491-1.35t0.982-2.148 0.491-2.394h-16.696q-2.026 0-3.468-1.443t-1.443-3.468zM3.929 30.446q0 0.399 0.292 0.691t0.691 0.292h49.107q0.399 0 0.691-0.292t0.292-0.691v-25.536q0-0.399-0.292-0.691t-0.691-0.292h-49.107q-0.399 0-0.691 0.292t-0.292 0.691v25.536z" fill="#ffffff"></path>
</svg>
