<?xml version="1.0" encoding="utf-8"?>
<!-- Generated by IcoMoon.io -->
<!DOCTYPE svg PUBLIC "-//W3C//DTD SVG 1.1//EN" "http://www.w3.org/Graphics/SVG/1.1/DTD/svg11.dtd">
<svg version="1.1" xmlns="http://www.w3.org/2000/svg" xmlns:xlink="http://www.w3.org/1999/xlink" width="55" height="55" viewBox="0 0 55 55">
<g>
	<line stroke-width="1" x1="" y1="" x2="" y2="" stroke="#449FDB" opacity=""></line>
</g>
	<path d="M0 46.161v-33.393q0-2.026 1.443-3.468t3.468-1.443h45.179q2.026 0 3.468 1.443t1.443 3.468v33.393q0 2.026-1.443 3.468t-3.468 1.443h-45.179q-2.026 0-3.468-1.443t-1.443-3.468zM3.929 46.161q0 0.399 0.292 0.691t0.691 0.292h45.179q0.399 0 0.691-0.292t0.292-0.691v-23.571q-0.982 1.105-2.118 2.026-8.225 6.323-13.075 10.374-1.565 1.32-2.547 2.056t-2.655 1.489-3.146 0.752h-0.061q-1.473 0-3.146-0.752t-2.655-1.489-2.547-2.056q-4.849-4.051-13.075-10.374-1.136-0.921-2.118-2.026v23.571zM3.929 12.768q0 5.156 4.512 8.717 5.924 4.665 12.307 9.729 0.184 0.153 1.074 0.905t1.412 1.151 1.366 0.967 1.55 0.844 1.32 0.276h0.061q0.614 0 1.32-0.276t1.55-0.844 1.366-0.967 1.412-1.151 1.074-0.905q6.384-5.064 12.307-9.729 1.657-1.32 3.085-3.545t1.427-4.036v-0.752t-0.015-0.399-0.092-0.384-0.169-0.276-0.276-0.23-0.43-0.077h-45.179q-0.399 0-0.691 0.292t-0.292 0.691z" fill="#ffffff"></path>
</svg>
