<?xml version="1.0" encoding="utf-8"?>
<!-- Generated by IcoMoon.io -->
<!DOCTYPE svg PUBLIC "-//W3C//DTD SVG 1.1//EN" "http://www.w3.org/Graphics/SVG/1.1/DTD/svg11.dtd">
<svg version="1.1" xmlns="http://www.w3.org/2000/svg" xmlns:xlink="http://www.w3.org/1999/xlink" width="55" height="55" viewBox="0 0 55 55">
<g>
	<line stroke-width="1" x1="" y1="" x2="" y2="" stroke="#449FDB" opacity=""></line>
</g>
	<path d="M0 42.232v-29.464q0-3.652 2.593-6.246t6.246-2.593h29.464q3.652 0 6.246 2.593t2.593 6.246v29.464q0 3.652-2.593 6.246t-6.246 2.593h-6.875q-0.491 0-0.752-0.031t-0.599-0.153-0.491-0.445-0.153-0.844v-7.335q0-2.977-1.596-4.358 1.749-0.184 3.146-0.552t2.885-1.197 2.486-2.041 1.627-3.223 0.629-4.619q0-3.714-2.425-6.323 1.136-2.793-0.246-6.261-0.859-0.276-2.486 0.338t-2.824 1.35l-1.166 0.737q-2.854-0.798-5.893-0.798t-5.893 0.798q-0.491-0.338-1.304-0.829t-2.563-1.182-2.64-0.414q-1.35 3.468-0.215 6.261-2.425 2.609-2.425 6.323 0 2.609 0.629 4.604t1.611 3.223 2.471 2.056 2.885 1.197 3.146 0.552q-1.228 1.105-1.504 3.161-0.645 0.307-1.381 0.46t-1.749 0.153-2.010-0.66-1.703-1.918q-0.583-0.982-1.489-1.596t-1.519-0.737l-0.614-0.092q-0.645 0-0.89 0.138t-0.153 0.353 0.276 0.43 0.399 0.368l0.215 0.153q0.675 0.307 1.335 1.166t0.967 1.565l0.307 0.706q0.399 1.166 1.35 1.888t2.056 0.921 2.133 0.215 1.703-0.107l0.706-0.123q0 1.166 0.015 3.161t0.015 2.087q0 0.675-0.338 1.028t-0.675 0.399-1.013 0.046h-6.875q-3.652 0-6.246-2.593t-2.593-6.246zM8.318 37.475q0.092-0.153 0.399-0.061 0.307 0.153 0.215 0.368-0.153 0.215-0.399 0.061-0.307-0.153-0.215-0.368zM9.33 38.242q0.184-0.184 0.491 0.092 0.276 0.338 0.061 0.491-0.184 0.215-0.491-0.092-0.276-0.338-0.061-0.491zM10.282 39.992q-0.276-0.399 0-0.552 0.276-0.215 0.522 0.184 0.276 0.368 0 0.583-0.246 0.184-0.522-0.215zM11.356 40.82q0.246-0.276 0.614 0.092 0.368 0.338 0.123 0.583-0.246 0.276-0.614-0.092-0.399-0.338-0.123-0.583zM12.86 41.987q0.123-0.338 0.583-0.215 0.491 0.153 0.399 0.491-0.123 0.368-0.583 0.184-0.522-0.123-0.399-0.46zM14.763 42.416q0-0.338 0.491-0.338 0.522-0.061 0.522 0.338 0 0.338-0.491 0.338-0.522 0.061-0.522-0.338zM16.574 42.294q-0.061-0.368 0.43-0.46 0.491-0.061 0.552 0.276 0.061 0.307-0.43 0.43t-0.552-0.246z" fill="#ffffff"></path>
</svg>
