<?xml version="1.0" encoding="utf-8"?>
<!-- Generated by IcoMoon.io -->
<!DOCTYPE svg PUBLIC "-//W3C//DTD SVG 1.1//EN" "http://www.w3.org/Graphics/SVG/1.1/DTD/svg11.dtd">
<svg version="1.1" xmlns="http://www.w3.org/2000/svg" xmlns:xlink="http://www.w3.org/1999/xlink" width="55" height="55" viewBox="0 0 55 55">
<g id="icomoon-ignore">
	<line stroke-width="1" x1="" y1="" x2="" y2="" stroke="#449FDB" opacity=""></line>
</g>
	<path d="M45.834 0h-36.666c-5.042 0-9.168 4.126-9.168 9.168v36.664c0 5.045 4.126 9.168 9.168 9.168h36.666c5.042 0 9.166-4.122 9.166-9.168v-36.664c0-5.042-4.124-9.168-9.166-9.168zM45.013 18.36c0.018 0.394 0.026 0.791 0.026 1.19 0 12.15-9.089 26.161-25.709 26.161-5.103 0-9.852-1.523-13.851-4.131 0.707 0.085 1.426 0.129 2.155 0.129 4.234 0 8.13-1.47 11.222-3.936-3.954-0.074-7.291-2.733-8.441-6.385 0.552 0.107 1.118 0.165 1.7 0.165 0.824 0 1.622-0.113 2.38-0.323-4.134-0.845-7.248-4.561-7.248-9.016 0-0.039 0-0.077 0.001-0.116 1.218 0.689 2.612 1.102 4.093 1.15-2.425-1.649-4.020-4.463-4.020-7.653 0-1.685 0.445-3.264 1.223-4.622 4.457 5.563 11.115 9.223 18.624 9.607-0.154-0.673-0.234-1.375-0.234-2.095 0-5.078 4.046-9.194 9.036-9.194 2.599 0 4.948 1.116 6.596 2.904 2.058-0.412 3.992-1.177 5.738-2.231-0.675 2.147-2.107 3.949-3.973 5.087 1.828-0.222 3.569-0.717 5.19-1.448-1.211 1.844-2.743 3.463-4.509 4.759z" fill="#ffffff"></path>
</svg>
